<?xml version="1.0" encoding="UTF-8"?>
<!DOCTYPE svg PUBLIC "-//W3C//DTD SVG 1.1//EN" "http://www.w3.org/Graphics/SVG/1.1/DTD/svg11.dtd">
<svg xmlns="http://www.w3.org/2000/svg" version="1.1" width="1280px" height="698px" style="shape-rendering:geometricPrecision; text-rendering:geometricPrecision; image-rendering:optimizeQuality; fill-rule:evenodd; clip-rule:evenodd" xmlns:xlink="http://www.w3.org/1999/xlink">
<g><path style="opacity:1" fill="#000000" d="M -0.5,-0.5 C -0.166667,-0.5 0.166667,-0.5 0.5,-0.5C 0.31468,0.170143 -0.0186536,0.170143 -0.5,-0.5 Z"/></g>
<g><path style="opacity:1" fill="#000000" d="M 638.5,65.5 C 639.239,65.369 639.906,65.5357 640.5,66C 656.876,80.7965 663.043,98.9631 659,120.5C 656.653,126.684 653.153,132.184 648.5,137C 646.473,138.879 644.14,140.046 641.5,140.5C 641.891,128.447 641.391,116.447 640,104.5C 637.881,116.405 637.047,128.405 637.5,140.5C 629.073,136.232 623.24,129.565 620,120.5C 616.825,108.859 617.825,97.5256 623,86.5C 627.697,79.0848 632.864,72.0848 638.5,65.5 Z"/></g>
<g><path style="opacity:1" fill="#000000" d="M 568.5,104.5 C 585.184,101.991 599.851,106.158 612.5,117C 618.717,125.483 622.05,134.983 622.5,145.5C 621.022,145.762 619.689,145.429 618.5,144.5C 612.16,139.19 605.494,134.69 598.5,131C 604.887,137.387 611.221,143.721 617.5,150C 598.208,154.557 583.708,148.057 574,130.5C 570.118,122.083 568.284,113.416 568.5,104.5 Z"/></g>
<g><path style="opacity:1" fill="#000000" d="M 690.5,104.5 C 697.618,103.895 704.452,104.562 711,106.5C 710.184,121.631 704.351,134.464 693.5,145C 683.883,151.253 673.55,153.253 662.5,151C 661.549,150.282 661.383,149.449 662,148.5C 668.469,143.032 674.636,137.199 680.5,131C 672.57,135.217 665.07,140.383 658,146.5C 656.712,130.772 662.879,118.605 676.5,110C 681.168,107.82 685.834,105.987 690.5,104.5 Z"/></g>
<g><path style="opacity:1" fill="#000000" d="M 562.5,131.5 C 563.675,131.281 564.675,131.614 565.5,132.5C 566.831,135.834 568.665,138.834 571,141.5C 571.684,142.784 571.517,143.951 570.5,145C 493.887,171.717 441.72,223.217 414,299.5C 388.283,384.213 402.616,461.213 457,530.5C 515.714,596.418 589.214,623.918 677.5,613C 764.261,595.562 825.428,546.396 861,465.5C 892.623,374.562 878.29,291.895 818,217.5C 788.327,183.738 752.16,159.571 709.5,145C 708.446,143.612 708.28,142.112 709,140.5C 710.753,137.995 712.253,135.329 713.5,132.5C 714.723,131.386 716.056,131.219 717.5,132C 800.376,162.873 855.209,220.373 882,304.5C 906.954,400.152 886.121,483.986 819.5,556C 747.286,623.805 662.952,645.138 566.5,620C 478.909,590.743 421.743,531.909 395,443.5C 373.544,349.979 394.877,267.979 459,197.5C 488.458,167.532 522.958,145.532 562.5,131.5 Z M 743.5,232.5 C 744.043,232.56 744.376,232.893 744.5,233.5C 743.512,239.608 742.346,245.608 741,251.5C 737.081,249.124 733.248,246.624 729.5,244C 734.647,240.68 739.314,236.847 743.5,232.5 Z M 488.5,271.5 C 498.823,270.408 505.656,274.741 509,284.5C 509.701,287.928 509.368,291.262 508,294.5C 505,298.833 502,303.167 499,307.5C 490.894,300.208 482.728,293.041 474.5,286C 478.013,279.988 482.68,275.155 488.5,271.5 Z M 657.5,295.5 C 659.852,296.543 660.019,297.876 658,299.5C 656.232,298.318 656.065,296.985 657.5,295.5 Z M 647.5,303.5 C 647.494,300.175 648.994,297.841 652,296.5C 652.45,298.519 653.283,300.352 654.5,302C 652.08,302.29 649.746,302.79 647.5,303.5 Z M 639.5,299.5 C 640.5,299.5 641.5,299.5 642.5,299.5C 642.762,300.978 642.429,302.311 641.5,303.5C 639.885,302.846 638.218,302.346 636.5,302C 637.942,301.623 638.942,300.79 639.5,299.5 Z M 708.5,311.5 C 709.314,309.727 710.648,309.227 712.5,310C 711.255,310.791 709.922,311.291 708.5,311.5 Z M 559.5,311.5 C 561.337,311.639 561.67,312.306 560.5,313.5C 559.702,313.043 559.369,312.376 559.5,311.5 Z M 708.5,311.5 C 705.943,315.359 704.443,319.692 704,324.5C 703.299,321.072 703.632,317.738 705,314.5C 705.422,312.574 706.589,311.574 708.5,311.5 Z M 629.5,312.5 C 632.383,314.982 632.05,316.149 628.5,316C 629.337,314.989 629.67,313.822 629.5,312.5 Z M 643.5,313.5 C 645.934,314.354 645.767,315.354 643,316.5C 642.53,315.423 642.697,314.423 643.5,313.5 Z M 658.5,313.5 C 659.688,315.496 659.021,316.329 656.5,316C 657.381,315.292 658.047,314.458 658.5,313.5 Z M 635.5,318.5 C 639.613,316.967 640.113,317.633 637,320.5C 636.722,319.584 636.222,318.918 635.5,318.5 Z M 650.5,317.5 C 651.5,317.5 652.5,317.5 653.5,317.5C 652.497,329.481 651.497,329.481 650.5,317.5 Z M 552.5,318.5 C 554.337,318.639 554.67,319.306 553.5,320.5C 552.702,320.043 552.369,319.376 552.5,318.5 Z M 566.5,319.5 C 567.077,318.227 567.743,318.227 568.5,319.5C 568.03,320.463 567.363,320.463 566.5,319.5 Z M 545.5,325.5 C 547.337,325.639 547.67,326.306 546.5,327.5C 545.702,327.043 545.369,326.376 545.5,325.5 Z M 574.5,327.5 C 574.783,326.711 575.283,326.044 576,325.5C 576.528,326.816 576.028,327.483 574.5,327.5 Z M 551.5,332.5 C 552.606,333.149 553.606,333.483 554.5,333.5C 552.262,336.433 551.262,336.099 551.5,332.5 Z M 643.5,340.5 C 643.511,337.999 644.178,337.832 645.5,340C 644.906,340.464 644.239,340.631 643.5,340.5 Z M 546.5,339.5 C 547.573,340.251 547.74,341.251 547,342.5C 545.272,341.648 545.105,340.648 546.5,339.5 Z M 573.5,339.5 C 577.06,341.283 577.06,342.283 573.5,342.5C 573.5,341.5 573.5,340.5 573.5,339.5 Z M 569.5,346.5 C 568.89,347.391 568.557,348.391 568.5,349.5C 567.833,349.5 567.167,349.5 566.5,349.5C 566.5,348.5 566.5,347.5 566.5,346.5C 567.5,346.5 568.5,346.5 569.5,346.5 Z M 554.5,349.5 C 553.833,349.5 553.167,349.5 552.5,349.5C 553.167,346.833 553.833,346.833 554.5,349.5 Z M 576.5,385.5 C 576.598,387.553 575.931,389.22 574.5,390.5C 574.12,388.302 574.787,386.635 576.5,385.5 Z M 574.5,390.5 C 574.206,393.754 572.873,396.421 570.5,398.5C 570.586,397.504 570.252,396.671 569.5,396C 571.402,394.27 573.069,392.437 574.5,390.5 Z M 622.5,391.5 C 623.376,391.369 624.043,391.702 624.5,392.5C 622.243,395.5 620.576,398.833 619.5,402.5C 619.167,402.167 618.833,401.833 618.5,401.5C 619.305,397.9 620.638,394.566 622.5,391.5 Z M 581.5,394.5 C 581.598,396.553 580.931,398.22 579.5,399.5C 579.402,397.447 580.069,395.78 581.5,394.5 Z M 570.5,398.5 C 570.262,400.404 569.262,401.738 567.5,402.5C 567.738,400.596 568.738,399.262 570.5,398.5 Z M 579.5,399.5 C 579.573,401.027 578.906,402.027 577.5,402.5C 577.427,400.973 578.094,399.973 579.5,399.5 Z M 557.5,400.5 C 561.221,400.793 561.055,401.459 557,402.5C 556.5,402.333 556,402.167 555.5,402C 556.416,401.722 557.082,401.222 557.5,400.5 Z M 733.5,402.5 C 731.972,402.483 731.472,401.816 732,400.5C 732.717,401.044 733.217,401.711 733.5,402.5 Z M 567.5,402.5 C 566.089,404.914 564.089,406.581 561.5,407.5C 562.911,405.086 564.911,403.419 567.5,402.5 Z M 570.5,411.5 C 570.511,409.314 571.511,408.481 573.5,409C 572.627,410.045 571.627,410.878 570.5,411.5 Z M 554.5,411.5 C 552.898,413.074 550.898,413.741 548.5,413.5C 550.214,412.262 552.214,411.595 554.5,411.5 Z M 644.5,462.5 C 645.336,468.419 646.503,474.419 648,480.5C 648.848,483.698 650.348,486.531 652.5,489C 648.472,489.428 645.305,491.262 643,494.5C 642.691,493.234 642.191,492.067 641.5,491C 638.623,489.873 635.623,489.206 632.5,489C 635.227,479.595 639.227,470.762 644.5,462.5 Z M 551.5,465.5 C 555.286,465.638 555.286,466.305 551.5,467.5C 551.5,466.833 551.5,466.167 551.5,465.5 Z M 570.5,465.5 C 571.303,466.423 571.47,467.423 571,468.5C 569.829,467.107 568.329,466.273 566.5,466C 567.793,465.51 569.127,465.343 570.5,465.5 Z M 537.5,471.5 C 538.376,471.369 539.043,471.702 539.5,472.5C 538.011,477.646 537.344,477.313 537.5,471.5 Z M 547.5,472.5 C 546.598,479.148 546.431,485.814 547,492.5C 545.594,486.558 545.261,480.558 546,474.5C 546.278,473.584 546.778,472.918 547.5,472.5 Z M 553.5,475.5 C 553.813,478.247 553.48,480.914 552.5,483.5C 551.11,480.524 551.443,477.857 553.5,475.5 Z M 712.5,486.5 C 713.043,486.56 713.376,486.893 713.5,487.5C 711.348,491.22 710.015,495.22 709.5,499.5C 708.359,497.579 708.192,495.579 709,493.5C 710.18,491.14 711.347,488.807 712.5,486.5 Z M 621.5,494.5 C 622.002,492.915 623.002,492.415 624.5,493C 623.756,494.039 622.756,494.539 621.5,494.5 Z M 621.5,494.5 C 622.756,494.539 623.756,494.039 624.5,493C 623.002,492.415 622.002,492.915 621.5,494.5 Z M 648.5,497.5 C 648.783,496.711 649.283,496.044 650,495.5C 650.528,496.816 650.028,497.483 648.5,497.5 Z M 548.5,502.5 C 549.905,504.225 550.405,506.225 550,508.5C 548.872,506.655 548.372,504.655 548.5,502.5 Z M 571.5,510.5 C 571.523,508.073 572.023,505.74 573,503.5C 573.826,506.212 573.326,508.545 571.5,510.5 Z M 765.5,531.5 C 770.575,531.18 772.408,533.514 771,538.5C 766.617,543.888 763.45,543.055 761.5,536C 763.018,534.649 764.351,533.149 765.5,531.5 Z M 525.5,542.5 C 526.239,542.369 526.906,542.536 527.5,543C 526.21,545.81 525.043,548.643 524,551.5C 522.786,549.951 521.286,548.785 519.5,548C 521.763,546.383 523.763,544.55 525.5,542.5 Z M 738.5,550.5 C 747.478,550.31 751.311,554.643 750,563.5C 745.182,570.09 740.182,570.09 735,563.5C 732.635,558.11 733.801,553.776 738.5,550.5 Z M 551.5,554.5 C 556.631,554.935 559.131,557.602 559,562.5C 558.167,563.333 557.333,564.167 556.5,565C 553.267,564.893 550.267,563.893 547.5,562C 549.496,559.838 550.83,557.338 551.5,554.5 Z"/></g>
<g><path style="opacity:1" fill="#000000" d="M 626.5,155.5 C 705.373,153.358 769.873,182.358 820,242.5C 862.127,297.509 876.127,359.176 862,427.5C 854.588,458.153 841.422,485.986 822.5,511C 818.435,509.768 815.102,507.268 812.5,503.5C 858.656,439.306 867.156,370.306 838,296.5C 801.786,222.318 742.619,179.818 660.5,169C 576.424,163.963 509.591,195.13 460,262.5C 421.226,322.374 413.892,386.04 438,453.5C 447.249,475.173 459.416,495.006 474.5,513C 473.008,515.658 471.008,517.824 468.5,519.5C 467.277,520.614 465.944,520.781 464.5,520C 417.235,463.059 401.735,398.226 418,325.5C 437.818,256.023 480.318,205.856 545.5,175C 571.478,163.922 598.478,157.422 626.5,155.5 Z M 743.5,232.5 C 739.314,236.847 734.647,240.68 729.5,244C 733.248,246.624 737.081,249.124 741,251.5C 742.346,245.608 743.512,239.608 744.5,233.5C 744.376,232.893 744.043,232.56 743.5,232.5 Z M 488.5,271.5 C 482.68,275.155 478.013,279.988 474.5,286C 482.728,293.041 490.894,300.208 499,307.5C 502,303.167 505,298.833 508,294.5C 509.368,291.262 509.701,287.928 509,284.5C 505.656,274.741 498.823,270.408 488.5,271.5 Z M 657.5,295.5 C 656.065,296.985 656.232,298.318 658,299.5C 660.019,297.876 659.852,296.543 657.5,295.5 Z M 647.5,303.5 C 649.746,302.79 652.08,302.29 654.5,302C 653.283,300.352 652.45,298.519 652,296.5C 648.994,297.841 647.494,300.175 647.5,303.5 Z M 639.5,299.5 C 638.942,300.79 637.942,301.623 636.5,302C 638.218,302.346 639.885,302.846 641.5,303.5C 642.429,302.311 642.762,300.978 642.5,299.5C 641.5,299.5 640.5,299.5 639.5,299.5 Z M 708.5,311.5 C 709.922,311.291 711.255,310.791 712.5,310C 710.648,309.227 709.314,309.727 708.5,311.5 Z M 559.5,311.5 C 559.369,312.376 559.702,313.043 560.5,313.5C 561.67,312.306 561.337,311.639 559.5,311.5 Z M 708.5,311.5 C 706.589,311.574 705.422,312.574 705,314.5C 703.632,317.738 703.299,321.072 704,324.5C 704.443,319.692 705.943,315.359 708.5,311.5 Z M 629.5,312.5 C 629.67,313.822 629.337,314.989 628.5,316C 632.05,316.149 632.383,314.982 629.5,312.5 Z M 643.5,313.5 C 642.697,314.423 642.53,315.423 643,316.5C 645.767,315.354 645.934,314.354 643.5,313.5 Z M 658.5,313.5 C 658.047,314.458 657.381,315.292 656.5,316C 659.021,316.329 659.688,315.496 658.5,313.5 Z M 635.5,318.5 C 636.222,318.918 636.722,319.584 637,320.5C 640.113,317.633 639.613,316.967 635.5,318.5 Z M 650.5,317.5 C 651.497,329.481 652.497,329.481 653.5,317.5C 652.5,317.5 651.5,317.5 650.5,317.5 Z M 552.5,318.5 C 552.369,319.376 552.702,320.043 553.5,320.5C 554.67,319.306 554.337,318.639 552.5,318.5 Z M 566.5,319.5 C 567.363,320.463 568.03,320.463 568.5,319.5C 567.743,318.227 567.077,318.227 566.5,319.5 Z M 545.5,325.5 C 545.369,326.376 545.702,327.043 546.5,327.5C 547.67,326.306 547.337,325.639 545.5,325.5 Z M 574.5,327.5 C 576.028,327.483 576.528,326.816 576,325.5C 575.283,326.044 574.783,326.711 574.5,327.5 Z M 551.5,332.5 C 551.262,336.099 552.262,336.433 554.5,333.5C 553.606,333.483 552.606,333.149 551.5,332.5 Z M 643.5,340.5 C 644.239,340.631 644.906,340.464 645.5,340C 644.178,337.832 643.511,337.999 643.5,340.5 Z M 546.5,339.5 C 545.105,340.648 545.272,341.648 547,342.5C 547.74,341.251 547.573,340.251 546.5,339.5 Z M 573.5,339.5 C 573.5,340.5 573.5,341.5 573.5,342.5C 577.06,342.283 577.06,341.283 573.5,339.5 Z M 569.5,346.5 C 568.89,347.391 568.557,348.391 568.5,349.5C 567.833,349.5 567.167,349.5 566.5,349.5C 566.5,348.5 566.5,347.5 566.5,346.5C 567.5,346.5 568.5,346.5 569.5,346.5 Z M 554.5,349.5 C 553.833,349.5 553.167,349.5 552.5,349.5C 553.167,346.833 553.833,346.833 554.5,349.5 Z M 576.5,385.5 C 576.598,387.553 575.931,389.22 574.5,390.5C 574.12,388.302 574.787,386.635 576.5,385.5 Z M 574.5,390.5 C 574.206,393.754 572.873,396.421 570.5,398.5C 570.586,397.504 570.252,396.671 569.5,396C 571.402,394.27 573.069,392.437 574.5,390.5 Z M 622.5,391.5 C 620.638,394.566 619.305,397.9 618.5,401.5C 618.833,401.833 619.167,402.167 619.5,402.5C 620.576,398.833 622.243,395.5 624.5,392.5C 624.043,391.702 623.376,391.369 622.5,391.5 Z M 581.5,394.5 C 581.598,396.553 580.931,398.22 579.5,399.5C 579.402,397.447 580.069,395.78 581.5,394.5 Z M 570.5,398.5 C 570.262,400.404 569.262,401.738 567.5,402.5C 567.738,400.596 568.738,399.262 570.5,398.5 Z M 579.5,399.5 C 579.573,401.027 578.906,402.027 577.5,402.5C 577.427,400.973 578.094,399.973 579.5,399.5 Z M 557.5,400.5 C 557.082,401.222 556.416,401.722 555.5,402C 556,402.167 556.5,402.333 557,402.5C 561.055,401.459 561.221,400.793 557.5,400.5 Z M 733.5,402.5 C 733.217,401.711 732.717,401.044 732,400.5C 731.472,401.816 731.972,402.483 733.5,402.5 Z M 567.5,402.5 C 566.089,404.914 564.089,406.581 561.5,407.5C 562.911,405.086 564.911,403.419 567.5,402.5 Z M 570.5,411.5 C 571.627,410.878 572.627,410.045 573.5,409C 571.511,408.481 570.511,409.314 570.5,411.5 Z M 554.5,411.5 C 552.898,413.074 550.898,413.741 548.5,413.5C 550.214,412.262 552.214,411.595 554.5,411.5 Z M 644.5,462.5 C 639.227,470.762 635.227,479.595 632.5,489C 635.623,489.206 638.623,489.873 641.5,491C 642.191,492.067 642.691,493.234 643,494.5C 645.305,491.262 648.472,489.428 652.5,489C 650.348,486.531 648.848,483.698 648,480.5C 646.503,474.419 645.336,468.419 644.5,462.5 Z M 551.5,465.5 C 555.286,465.638 555.286,466.305 551.5,467.5C 551.5,466.833 551.5,466.167 551.5,465.5 Z M 570.5,465.5 C 569.127,465.343 567.793,465.51 566.5,466C 568.329,466.273 569.829,467.107 571,468.5C 571.47,467.423 571.303,466.423 570.5,465.5 Z M 537.5,471.5 C 537.344,477.313 538.011,477.646 539.5,472.5C 539.043,471.702 538.376,471.369 537.5,471.5 Z M 547.5,472.5 C 546.778,472.918 546.278,473.584 546,474.5C 545.261,480.558 545.594,486.558 547,492.5C 546.431,485.814 546.598,479.148 547.5,472.5 Z M 553.5,475.5 C 551.443,477.857 551.11,480.524 552.5,483.5C 553.48,480.914 553.813,478.247 553.5,475.5 Z M 712.5,486.5 C 711.347,488.807 710.18,491.14 709,493.5C 708.192,495.579 708.359,497.579 709.5,499.5C 710.015,495.22 711.348,491.22 713.5,487.5C 713.376,486.893 713.043,486.56 712.5,486.5 Z M 621.5,494.5 C 622.756,494.539 623.756,494.039 624.5,493C 623.002,492.415 622.002,492.915 621.5,494.5 Z M 621.5,494.5 C 622.756,494.539 623.756,494.039 624.5,493C 623.002,492.415 622.002,492.915 621.5,494.5 Z M 648.5,497.5 C 650.028,497.483 650.528,496.816 650,495.5C 649.283,496.044 648.783,496.711 648.5,497.5 Z M 548.5,502.5 C 548.372,504.655 548.872,506.655 550,508.5C 550.405,506.225 549.905,504.225 548.5,502.5 Z M 571.5,510.5 C 573.326,508.545 573.826,506.212 573,503.5C 572.023,505.74 571.523,508.073 571.5,510.5 Z"/></g>
<g><path style="opacity:1" fill="#000000" d="M 647.5,185.5 C 652.951,184.779 657.785,186.112 662,189.5C 668.667,200.833 675.333,212.167 682,223.5C 683.997,212.856 685.83,202.189 687.5,191.5C 692.095,192.648 696.762,193.481 701.5,194C 702.357,194.689 703.023,195.522 703.5,196.5C 699.271,215.319 695.938,234.319 693.5,253.5C 688.081,253.278 683.248,251.611 679,248.5C 672.082,237.666 665.415,226.666 659,215.5C 657.262,225.457 655.596,235.457 654,245.5C 648.974,246.333 643.974,246 639,244.5C 640.934,224.689 643.768,205.023 647.5,185.5 Z"/></g>
<g><path style="opacity:1" fill="#000000" d="M 619.5,187.5 C 621.911,187.137 623.411,188.137 624,190.5C 626.365,209.148 628.531,227.815 630.5,246.5C 626.136,246.906 621.803,247.572 617.5,248.5C 616.006,248.291 614.839,247.624 614,246.5C 612.415,228.232 610.248,210.065 607.5,192C 607.735,191.127 608.069,190.293 608.5,189.5C 612.313,188.833 615.979,188.166 619.5,187.5 Z"/></g>
<g><path style="opacity:1" fill="#000000" d="M 590.5,190.5 C 591.5,190.5 592.5,190.5 593.5,190.5C 592.391,211.831 591.224,233.165 590,254.5C 585.751,256.694 581.418,258.694 577,260.5C 561.493,245.659 546.66,230.159 532.5,214C 537,211.833 541.5,209.667 546,207.5C 547.225,207.862 548.391,208.362 549.5,209C 557.938,218.775 566.771,228.275 576,237.5C 576.627,223.803 577.627,210.136 579,196.5C 579.308,195.692 579.808,195.025 580.5,194.5C 583.932,193.107 587.265,191.773 590.5,190.5 Z"/></g>
<g><path style="opacity:1" fill="#000000" d="M 744.5,213.5 C 745.873,213.343 747.207,213.51 748.5,214C 751.663,216.416 754.996,218.582 758.5,220.5C 757.602,242.16 755.769,263.827 753,285.5C 752.586,285.957 752.086,286.291 751.5,286.5C 747.156,284.329 743.156,281.663 739.5,278.5C 739.348,274.251 739.182,269.918 739,265.5C 732.237,260.866 725.07,256.866 717.5,253.5C 714.516,256.326 711.183,258.659 707.5,260.5C 704.754,258.527 701.754,257.027 698.5,256C 697.101,254.938 696.101,253.605 695.5,252C 711.871,239.156 728.205,226.323 744.5,213.5 Z M 743.5,232.5 C 739.314,236.847 734.647,240.68 729.5,244C 733.248,246.624 737.081,249.124 741,251.5C 742.346,245.608 743.512,239.608 744.5,233.5C 744.376,232.893 744.043,232.56 743.5,232.5 Z"/></g>
<g><path style="opacity:1" fill="#000000" d="M 517.5,224.5 C 518.239,224.369 518.906,224.536 519.5,225C 531.051,239.55 542.218,254.383 553,269.5C 553.667,270.833 553.667,272.167 553,273.5C 550.167,275.667 547.333,277.833 544.5,280C 541.113,280.81 538.613,279.644 537,276.5C 527.333,262.833 517.667,249.167 508,235.5C 507.219,234.056 507.386,232.723 508.5,231.5C 511.75,229.388 514.75,227.055 517.5,224.5 Z"/></g>
<g><path style="opacity:1" fill="#000000" d="M 780.5,238.5 C 791.013,238.901 794.513,243.901 791,253.5C 785.196,259.317 778.363,262.817 770.5,264C 767.297,262.828 765.797,260.661 766,257.5C 768.743,255.212 771.577,253.045 774.5,251C 773.402,248.502 773.568,246.002 775,243.5C 776.73,241.598 778.563,239.931 780.5,238.5 Z"/></g>
<g><path style="opacity:1" fill="#000000" d="M 487.5,256.5 C 505.484,254.24 517.651,261.573 524,278.5C 525.035,285.355 524.368,292.022 522,298.5C 515.807,309.191 508.307,318.858 499.5,327.5C 485.022,316.19 470.689,304.69 456.5,293C 455.707,291.915 455.04,290.748 454.5,289.5C 459.776,281.289 465.776,273.623 472.5,266.5C 477.018,262.292 482.018,258.959 487.5,256.5 Z M 488.5,271.5 C 482.68,275.155 478.013,279.988 474.5,286C 482.728,293.041 490.894,300.208 499,307.5C 502,303.167 505,298.833 508,294.5C 509.368,291.262 509.701,287.928 509,284.5C 505.656,274.741 498.823,270.408 488.5,271.5 Z"/></g>
<g><path style="opacity:1" fill="#000000" d="M 796.5,262.5 C 807.43,263.596 815.597,268.929 821,278.5C 823.42,282.759 825.253,287.259 826.5,292C 826.18,293.653 825.18,294.653 823.5,295C 820.689,295.911 817.856,296.744 815,297.5C 813.12,293.246 811.12,288.913 809,284.5C 806.364,280.613 802.864,278.447 798.5,278C 797.57,279.194 796.903,280.527 796.5,282C 798.88,287.922 801.38,293.755 804,299.5C 807.661,315.835 801.161,323.669 784.5,323C 768.495,317.005 760.328,305.505 760,288.5C 763.573,286.975 767.24,285.642 771,284.5C 771.945,284.905 772.612,285.572 773,286.5C 773.019,295.168 776.519,302.001 783.5,307C 787.128,308.316 789.461,307.149 790.5,303.5C 785.122,295.203 782.288,286.203 782,276.5C 784.089,268.91 788.922,264.243 796.5,262.5 Z"/></g>
<g><path style="opacity:1" fill="#010101" d="M 582.5,325.5 C 581.351,325.791 580.684,326.624 580.5,328C 580.684,329.376 581.351,330.209 582.5,330.5C 581.909,331.151 581.243,331.818 580.5,332.5C 581.93,335.015 582.43,338.015 582,341.5C 580.063,348.579 575.897,353.746 569.5,357C 566.854,357.497 564.187,357.664 561.5,357.5C 560.833,353.5 560.167,353.5 559.5,357.5C 551.293,357.657 545.293,353.99 541.5,346.5C 541.709,345.914 542.043,345.414 542.5,345C 539.25,342.145 538.917,339.145 541.5,336C 540.833,335.333 540.167,334.667 539.5,334C 538.387,322.569 543.054,314.236 553.5,309C 549.081,304.616 544.081,300.949 538.5,298C 542.313,296.738 546.313,296.071 550.5,296C 546.987,293.533 544.821,290.366 544,286.5C 544.414,286.043 544.914,285.709 545.5,285.5C 547.795,286.432 550.129,287.265 552.5,288C 553.667,288.5 554.5,289.333 555,290.5C 556.206,286.845 557.539,283.178 559,279.5C 560.011,278.663 561.178,278.33 562.5,278.5C 563.757,282.441 564.924,286.441 566,290.5C 569.311,287.594 573.144,285.927 577.5,285.5C 576.65,289.55 574.65,293.05 571.5,296C 575.687,296.071 579.687,296.738 583.5,298C 578.068,300.713 573.401,304.38 569.5,309C 571.725,311.228 574.225,313.061 577,314.5C 578.391,318.435 580.224,322.102 582.5,325.5 Z M 559.5,311.5 C 559.369,312.376 559.702,313.043 560.5,313.5C 561.67,312.306 561.337,311.639 559.5,311.5 Z M 552.5,318.5 C 552.369,319.376 552.702,320.043 553.5,320.5C 554.67,319.306 554.337,318.639 552.5,318.5 Z M 566.5,319.5 C 567.363,320.463 568.03,320.463 568.5,319.5C 567.743,318.227 567.077,318.227 566.5,319.5 Z M 545.5,325.5 C 545.369,326.376 545.702,327.043 546.5,327.5C 547.67,326.306 547.337,325.639 545.5,325.5 Z M 574.5,327.5 C 576.028,327.483 576.528,326.816 576,325.5C 575.283,326.044 574.783,326.711 574.5,327.5 Z M 551.5,332.5 C 551.262,336.099 552.262,336.433 554.5,333.5C 553.606,333.483 552.606,333.149 551.5,332.5 Z M 546.5,339.5 C 545.105,340.648 545.272,341.648 547,342.5C 547.74,341.251 547.573,340.251 546.5,339.5 Z M 573.5,339.5 C 573.5,340.5 573.5,341.5 573.5,342.5C 577.06,342.283 577.06,341.283 573.5,339.5 Z M 569.5,346.5 C 568.89,347.391 568.557,348.391 568.5,349.5C 567.833,349.5 567.167,349.5 566.5,349.5C 566.5,348.5 566.5,347.5 566.5,346.5C 567.5,346.5 568.5,346.5 569.5,346.5 Z M 554.5,349.5 C 553.833,349.5 553.167,349.5 552.5,349.5C 553.167,346.833 553.833,346.833 554.5,349.5 Z"/></g>
<g><path style="opacity:1" fill="#000000" d="M 653.5,280.5 C 655.595,280.76 656.928,281.926 657.5,284C 655.385,285.953 653.385,288.119 651.5,290.5C 657.077,289.974 662.743,289.974 668.5,290.5C 668.5,291.833 668.5,293.167 668.5,294.5C 666.801,294.34 665.134,294.506 663.5,295C 664.597,300.423 662.263,303.423 656.5,304C 657.701,304.903 658.535,306.069 659,307.5C 661.257,303.416 664.424,302.583 668.5,305C 673.833,309.667 673.833,314.333 668.5,319C 667.167,319.333 665.833,319.667 664.5,320C 666.768,326.596 664.435,330.763 657.5,332.5C 659.453,338.9 657.12,342.9 650.5,344.5C 652.796,350.908 650.629,354.908 644,356.5C 636.674,354.804 634.507,350.637 637.5,344C 632.499,343.828 629.499,341.328 628.5,336.5C 628.722,334.945 629.389,333.611 630.5,332.5C 623.532,330.74 621.199,326.573 623.5,320C 616.368,317.951 614.201,313.451 617,306.5C 621.543,302.189 625.71,302.523 629.5,307.5C 630.287,306.758 630.953,305.925 631.5,305C 627.637,303.819 624.137,301.986 621,299.5C 620.91,297.232 622.077,295.732 624.5,295C 616.918,284.712 619.584,281.212 632.5,284.5C 632.5,283.5 632.5,282.5 632.5,281.5C 639.601,281.765 643.768,285.431 645,292.5C 646.858,287.809 649.691,283.809 653.5,280.5 Z M 657.5,295.5 C 656.065,296.985 656.232,298.318 658,299.5C 660.019,297.876 659.852,296.543 657.5,295.5 Z M 647.5,303.5 C 649.746,302.79 652.08,302.29 654.5,302C 653.283,300.352 652.45,298.519 652,296.5C 648.994,297.841 647.494,300.175 647.5,303.5 Z M 639.5,299.5 C 638.942,300.79 637.942,301.623 636.5,302C 638.218,302.346 639.885,302.846 641.5,303.5C 642.429,302.311 642.762,300.978 642.5,299.5C 641.5,299.5 640.5,299.5 639.5,299.5 Z M 629.5,312.5 C 629.67,313.822 629.337,314.989 628.5,316C 632.05,316.149 632.383,314.982 629.5,312.5 Z M 643.5,313.5 C 642.697,314.423 642.53,315.423 643,316.5C 645.767,315.354 645.934,314.354 643.5,313.5 Z M 658.5,313.5 C 658.047,314.458 657.381,315.292 656.5,316C 659.021,316.329 659.688,315.496 658.5,313.5 Z M 635.5,318.5 C 636.222,318.918 636.722,319.584 637,320.5C 640.113,317.633 639.613,316.967 635.5,318.5 Z M 650.5,317.5 C 651.497,329.481 652.497,329.481 653.5,317.5C 652.5,317.5 651.5,317.5 650.5,317.5 Z M 643.5,340.5 C 644.239,340.631 644.906,340.464 645.5,340C 644.178,337.832 643.511,337.999 643.5,340.5 Z"/></g>
<g><path style="opacity:1" fill="#000000" d="M 705.5,284.5 C 715.51,283.041 722.01,287.041 725,296.5C 726.738,292.759 729.238,289.592 732.5,287C 734.837,286.675 736.503,287.675 737.5,290C 732.426,293.664 729.593,298.498 729,304.5C 745.698,298.932 754.531,304.932 755.5,322.5C 755.437,333.708 751.437,343.208 743.5,351C 740.828,352.557 737.995,353.724 735,354.5C 732.222,353.597 729.389,352.931 726.5,352.5C 721.857,353.483 717.191,353.65 712.5,353C 700.141,343.616 694.975,331.116 697,315.5C 701.677,302.835 710.344,299.169 723,304.5C 723.5,304.167 724,303.833 724.5,303.5C 719.107,302.079 714.107,299.912 709.5,297C 706.58,293.329 705.246,289.163 705.5,284.5 Z M 708.5,311.5 C 709.922,311.291 711.255,310.791 712.5,310C 710.648,309.227 709.314,309.727 708.5,311.5 Z M 708.5,311.5 C 706.589,311.574 705.422,312.574 705,314.5C 703.632,317.738 703.299,321.072 704,324.5C 704.443,319.692 705.943,315.359 708.5,311.5 Z"/></g>
<g><path style="opacity:1" fill="#1e1f1e" d="M 632.5,306.5 C 633.267,307.172 633.934,308.005 634.5,309C 632.939,309.188 632.272,308.355 632.5,306.5 Z"/></g>
<g><path style="opacity:1" fill="#000000" d="M 815.5,323.5 C 818.168,324.457 819.668,326.457 820,329.5C 836.792,386.09 829.459,439.09 798,488.5C 794.359,490.74 791.026,490.073 788,486.5C 787.333,485.167 787.333,483.833 788,482.5C 815.506,441.296 824.173,396.296 814,347.5C 812.32,341.11 810.486,334.777 808.5,328.5C 808.608,327.558 808.941,326.725 809.5,326C 811.723,325.434 813.723,324.6 815.5,323.5 Z"/></g>
<g><path style="opacity:1" fill="#000000" d="M 461.5,324.5 C 464.216,324.678 466.883,325.178 469.5,326C 470.081,326.893 470.415,327.893 470.5,329C 454.084,380.167 459.251,429.001 486,475.5C 488.678,478.873 491.344,482.206 494,485.5C 494.49,486.793 494.657,488.127 494.5,489.5C 491.436,490.684 488.269,491.684 485,492.5C 469.544,471.913 459.211,448.913 454,423.5C 449.069,397.095 449.402,370.762 455,344.5C 456.491,337.528 458.658,330.861 461.5,324.5 Z"/></g>
<g><path style="opacity:1" fill="#161616" d="M 582.5,325.5 C 582.5,327.167 582.5,328.833 582.5,330.5C 581.351,330.209 580.684,329.376 580.5,328C 580.684,326.624 581.351,325.791 582.5,325.5 Z"/></g>
<g><path style="opacity:1" fill="#000000" d="M 740.5,363.5 C 742.144,363.286 743.644,363.62 745,364.5C 745.333,367.167 745.667,369.833 746,372.5C 748.166,368.914 751.166,366.247 755,364.5C 757.27,366.315 757.936,368.648 757,371.5C 755.167,373.333 753.333,375.167 751.5,377C 753.832,376.351 756.166,376.518 758.5,377.5C 760.401,378.935 760.734,380.602 759.5,382.5C 755.322,384.295 750.989,385.628 746.5,386.5C 747.341,393.63 745.008,399.63 739.5,404.5C 726.237,416.556 711.404,426.556 695,434.5C 692.942,433.942 691.775,432.609 691.5,430.5C 693.33,426.172 695.164,421.838 697,417.5C 697.908,415.561 699.408,414.561 701.5,414.5C 702.721,406.893 706.388,400.726 712.5,396C 712.167,395.667 711.833,395.333 711.5,395C 715.49,387.978 720.824,382.312 727.5,378C 730.667,377.748 733.667,377.582 736.5,377.5C 737.528,372.719 738.861,368.053 740.5,363.5 Z M 733.5,402.5 C 733.217,401.711 732.717,401.044 732,400.5C 731.472,401.816 731.972,402.483 733.5,402.5 Z"/></g>
<g><path style="opacity:1" fill="#000000" d="M 548.5,413.5 C 536.281,413.641 526.781,408.641 520,398.5C 518.703,394.825 519.703,392.158 523,390.5C 532.876,394.007 543.042,395.507 553.5,395C 561.703,393.565 568.37,389.565 573.5,383C 574.448,382.517 575.448,382.351 576.5,382.5C 576.5,383.5 576.5,384.5 576.5,385.5C 580.083,379.953 580.417,374.12 577.5,368C 580.038,365.558 582.872,365.058 586,366.5C 586.266,373.318 588.599,379.318 593,384.5C 595.025,404.281 587.192,418.781 569.5,428C 555.683,434.443 542.35,433.61 529.5,425.5C 528.223,422.966 528.223,420.466 529.5,418C 536.116,417.128 542.449,415.628 548.5,413.5 Z M 576.5,385.5 C 576.598,387.553 575.931,389.22 574.5,390.5C 574.12,388.302 574.787,386.635 576.5,385.5 Z M 574.5,390.5 C 574.206,393.754 572.873,396.421 570.5,398.5C 570.586,397.504 570.252,396.671 569.5,396C 571.402,394.27 573.069,392.437 574.5,390.5 Z M 581.5,394.5 C 581.598,396.553 580.931,398.22 579.5,399.5C 579.402,397.447 580.069,395.78 581.5,394.5 Z M 570.5,398.5 C 570.262,400.404 569.262,401.738 567.5,402.5C 567.738,400.596 568.738,399.262 570.5,398.5 Z M 579.5,399.5 C 579.573,401.027 578.906,402.027 577.5,402.5C 577.427,400.973 578.094,399.973 579.5,399.5 Z M 557.5,400.5 C 557.082,401.222 556.416,401.722 555.5,402C 556,402.167 556.5,402.333 557,402.5C 561.055,401.459 561.221,400.793 557.5,400.5 Z M 567.5,402.5 C 566.089,404.914 564.089,406.581 561.5,407.5C 562.911,405.086 564.911,403.419 567.5,402.5 Z M 570.5,411.5 C 571.627,410.878 572.627,410.045 573.5,409C 571.511,408.481 570.511,409.314 570.5,411.5 Z M 554.5,411.5 C 552.898,413.074 550.898,413.741 548.5,413.5C 550.214,412.262 552.214,411.595 554.5,411.5 Z"/></g>
<g><path style="opacity:1" fill="#000000" d="M 642.5,370.5 C 644.167,370.5 645.833,370.5 647.5,370.5C 647.682,372.591 647.348,374.591 646.5,376.5C 650.87,377.203 655.204,378.036 659.5,379C 661.335,379.928 661.668,381.094 660.5,382.5C 670.524,386.022 675.191,393.189 674.5,404C 674.354,416.488 668.354,424.822 656.5,429C 643.339,433.684 631.339,431.684 620.5,423C 612.859,414.471 610.692,404.637 614,393.5C 616.388,388.277 620.222,384.611 625.5,382.5C 627.377,378.688 630.544,377.021 635,377.5C 636.894,377.58 638.727,377.913 640.5,378.5C 641.381,375.87 642.048,373.203 642.5,370.5 Z M 622.5,391.5 C 620.638,394.566 619.305,397.9 618.5,401.5C 618.833,401.833 619.167,402.167 619.5,402.5C 620.576,398.833 622.243,395.5 624.5,392.5C 624.043,391.702 623.376,391.369 622.5,391.5 Z"/></g>
<g><path style="opacity:1" fill="#000000" d="M 741.5,439.5 C 743.912,439.244 745.579,440.244 746.5,442.5C 744.048,453.004 737.715,457.337 727.5,455.5C 730.371,456.949 733.205,458.615 736,460.5C 739.089,466.499 741.422,472.832 743,479.5C 751.844,489.778 752.677,500.611 745.5,512C 733.974,520.94 721.974,521.607 709.5,514C 702.394,507.24 700.227,499.074 703,489.5C 704.934,485.241 707.268,481.241 710,477.5C 710.954,472.396 712.287,467.396 714,462.5C 716.029,459.404 718.862,457.738 722.5,457.5C 722.657,456.127 722.49,454.793 722,453.5C 720.039,451.072 718.206,448.572 716.5,446C 717.765,442.191 719.765,441.691 722.5,444.5C 724.651,446.772 726.151,449.439 727,452.5C 728.258,444.128 733.091,439.795 741.5,439.5 Z M 712.5,486.5 C 711.347,488.807 710.18,491.14 709,493.5C 708.192,495.579 708.359,497.579 709.5,499.5C 710.015,495.22 711.348,491.22 713.5,487.5C 713.376,486.893 713.043,486.56 712.5,486.5 Z"/></g>
<g><path style="opacity:1" fill="#000000" d="M 566.5,444.5 C 571.486,444.305 573.152,446.472 571.5,451C 566.916,452.075 564.916,454.908 565.5,459.5C 567.527,459.338 569.527,459.505 571.5,460C 573.762,460.701 574.762,461.868 574.5,463.5C 586.08,462.249 591.247,467.582 590,479.5C 587.682,488.77 585.682,498.104 584,507.5C 582.181,514.146 578.014,516.813 571.5,515.5C 570.749,514.624 570.249,513.624 570,512.5C 568.2,516.235 565.2,517.902 561,517.5C 557.455,517.961 554.788,516.628 553,513.5C 550.144,515.828 546.977,516.161 543.5,514.5C 540.65,512.135 538.816,509.135 538,505.5C 535.681,495.89 533.515,486.224 531.5,476.5C 531.524,471.922 533.19,468.089 536.5,465C 542.713,463.319 548.713,461.152 554.5,458.5C 555.167,458.833 555.833,459.167 556.5,459.5C 557.705,455.718 559.205,452.052 561,448.5C 562.812,447.023 564.645,445.69 566.5,444.5 Z M 551.5,465.5 C 555.286,465.638 555.286,466.305 551.5,467.5C 551.5,466.833 551.5,466.167 551.5,465.5 Z M 570.5,465.5 C 569.127,465.343 567.793,465.51 566.5,466C 568.329,466.273 569.829,467.107 571,468.5C 571.47,467.423 571.303,466.423 570.5,465.5 Z M 537.5,471.5 C 537.344,477.313 538.011,477.646 539.5,472.5C 539.043,471.702 538.376,471.369 537.5,471.5 Z M 547.5,472.5 C 546.778,472.918 546.278,473.584 546,474.5C 545.261,480.558 545.594,486.558 547,492.5C 546.431,485.814 546.598,479.148 547.5,472.5 Z M 553.5,475.5 C 551.443,477.857 551.11,480.524 552.5,483.5C 553.48,480.914 553.813,478.247 553.5,475.5 Z M 548.5,502.5 C 548.372,504.655 548.872,506.655 550,508.5C 550.405,506.225 549.905,504.225 548.5,502.5 Z M 571.5,510.5 C 573.326,508.545 573.826,506.212 573,503.5C 572.023,505.74 571.523,508.073 571.5,510.5 Z"/></g>
<g><path style="opacity:1" fill="#000000" d="M 650.5,448.5 C 651.496,448.414 652.329,448.748 653,449.5C 653.701,453.614 656.201,455.448 660.5,455C 669.036,459.565 673.37,466.731 673.5,476.5C 662.854,477.796 655.687,473.463 652,463.5C 650.222,472.658 652.056,480.991 657.5,488.5C 665.131,484.904 670.298,487.237 673,495.5C 674.537,503.265 672.037,509.432 665.5,514C 655.322,517.987 647.822,515.154 643,505.5C 639.88,514.332 633.713,517.498 624.5,515C 617.602,512.735 613.935,507.901 613.5,500.5C 613.464,492.875 617.13,488.208 624.5,486.5C 626.187,486.76 627.687,487.427 629,488.5C 631.738,472.685 638.904,459.352 650.5,448.5 Z M 644.5,462.5 C 639.227,470.762 635.227,479.595 632.5,489C 635.623,489.206 638.623,489.873 641.5,491C 642.191,492.067 642.691,493.234 643,494.5C 645.305,491.262 648.472,489.428 652.5,489C 650.348,486.531 648.848,483.698 648,480.5C 646.503,474.419 645.336,468.419 644.5,462.5 Z M 621.5,494.5 C 622.756,494.539 623.756,494.039 624.5,493C 623.002,492.415 622.002,492.915 621.5,494.5 Z M 621.5,494.5 C 622.756,494.539 623.756,494.039 624.5,493C 623.002,492.415 622.002,492.915 621.5,494.5 Z M 648.5,497.5 C 650.028,497.483 650.528,496.816 650,495.5C 649.283,496.044 648.783,496.711 648.5,497.5 Z"/></g>
<g><path style="opacity:1" fill="#000000" d="M 785.5,499.5 C 788.588,499.367 790.588,500.7 791.5,503.5C 789.303,508.04 786.303,512.04 782.5,515.5C 783.833,516.5 785.167,517.5 786.5,518.5C 789.14,515.194 792.14,512.194 795.5,509.5C 797.5,510.833 799.167,512.5 800.5,514.5C 797.5,517.833 794.5,521.167 791.5,524.5C 793.197,525.364 794.363,526.697 795,528.5C 798.682,524.651 802.515,520.984 806.5,517.5C 808.5,518.833 810.167,520.5 811.5,522.5C 806.841,528.993 801.341,534.659 795,539.5C 786.5,532.333 778.667,524.5 771.5,516C 776.364,510.639 781.03,505.139 785.5,499.5 Z"/></g>
<g><path style="opacity:1" fill="#000000" d="M 497.5,505.5 C 501.372,505.601 504.039,507.435 505.5,511C 502.214,517.702 499.714,524.535 498,531.5C 504.702,527.053 511.869,524.219 519.5,523C 520.833,524.333 522.167,525.667 523.5,527C 513.267,533.283 502.6,538.783 491.5,543.5C 488.5,542.5 486.5,540.5 485.5,537.5C 489.695,526.915 493.695,516.248 497.5,505.5 Z"/></g>
<g><path style="opacity:1" fill="#000000" d="M 768.5,522.5 C 777.708,524.89 781.375,530.89 779.5,540.5C 782.573,541.199 785.573,542.199 788.5,543.5C 789.223,547.137 787.556,549.137 783.5,549.5C 780.391,549.187 777.558,548.187 775,546.5C 773.274,546.946 771.774,547.779 770.5,549C 772.363,551.364 774.029,553.864 775.5,556.5C 774.499,559.253 772.666,561.253 770,562.5C 763.743,554.225 757.41,545.892 751,537.5C 750.175,535.299 750.675,533.466 752.5,532C 755.681,529.908 758.681,527.575 761.5,525C 763.927,524.098 766.26,523.264 768.5,522.5 Z M 765.5,531.5 C 764.351,533.149 763.018,534.649 761.5,536C 763.45,543.055 766.617,543.888 771,538.5C 772.408,533.514 770.575,531.18 765.5,531.5 Z"/></g>
<g><path style="opacity:1" fill="#000000" d="M 527.5,531.5 C 528.873,531.343 530.207,531.51 531.5,532C 534.064,533.062 535.731,534.896 536.5,537.5C 534.226,547.477 532.059,557.477 530,567.5C 529.882,569.573 528.882,570.907 527,571.5C 522.008,569.689 520.508,566.356 522.5,561.5C 522.471,559.971 521.804,558.804 520.5,558C 517.421,556.752 514.754,554.919 512.5,552.5C 507.858,557.706 503.524,557.373 499.5,551.5C 509.13,545.196 518.463,538.53 527.5,531.5 Z M 525.5,542.5 C 523.763,544.55 521.763,546.383 519.5,548C 521.286,548.785 522.786,549.951 524,551.5C 525.043,548.643 526.21,545.81 527.5,543C 526.906,542.536 526.239,542.369 525.5,542.5 Z"/></g>
<g><path style="opacity:1" fill="#000000" d="M 737.5,542.5 C 752.571,541.265 759.738,548.265 759,563.5C 756.169,573.33 749.669,577.83 739.5,577C 728.429,573.033 723.929,565.2 726,553.5C 728.437,548.226 732.271,544.56 737.5,542.5 Z M 738.5,550.5 C 733.801,553.776 732.635,558.11 735,563.5C 740.182,570.09 745.182,570.09 750,563.5C 751.311,554.643 747.478,550.31 738.5,550.5 Z"/></g>
<g><path style="opacity:1" fill="#000000" d="M 546.5,543.5 C 554.434,545.553 561.267,549.553 567,555.5C 568.041,560.44 567.374,565.106 565,569.5C 562.603,571.782 559.769,573.116 556.5,573.5C 557.463,577.796 557.629,582.129 557,586.5C 554.667,585.167 552.333,583.833 550,582.5C 549.197,578.479 548.031,574.646 546.5,571C 545.365,570.251 544.365,570.417 543.5,571.5C 541.029,578.701 537.362,579.368 532.5,573.5C 537.181,563.474 541.847,553.474 546.5,543.5 Z M 551.5,554.5 C 550.83,557.338 549.496,559.838 547.5,562C 550.267,563.893 553.267,564.893 556.5,565C 557.333,564.167 558.167,563.333 559,562.5C 559.131,557.602 556.631,554.935 551.5,554.5 Z"/></g>
<g><path style="opacity:1" fill="#000000" d="M 719.5,551.5 C 725.321,555.975 724.654,559.309 717.5,561.5C 717.167,562.167 716.833,562.833 716.5,563.5C 718.889,570.61 721.556,577.61 724.5,584.5C 723.114,587.987 720.448,589.653 716.5,589.5C 714.071,581.304 711.071,573.304 707.5,565.5C 705.085,566.305 702.751,567.305 700.5,568.5C 699.201,567.91 698.368,566.91 698,565.5C 697.505,567.473 697.338,569.473 697.5,571.5C 693.149,569.857 688.982,570.19 685,572.5C 684.517,573.448 684.351,574.448 684.5,575.5C 688.804,576.131 693.137,576.631 697.5,577C 703.777,579.389 705.943,583.889 704,590.5C 698.124,597.848 690.624,600.015 681.5,597C 679.549,589.338 682.049,587.171 689,590.5C 691.905,590.441 694.072,589.274 695.5,587C 695.095,586.055 694.428,585.388 693.5,585C 689.106,584.697 684.773,584.03 680.5,583C 676.797,579.604 675.631,575.437 677,570.5C 678.5,567.667 680.667,565.5 683.5,564C 696.344,562.108 708.344,557.942 719.5,551.5 Z"/></g>
<g><path style="opacity:1" fill="#000000" d="M 573.5,556.5 C 576.271,556.421 578.937,556.921 581.5,558C 582.022,558.561 582.355,559.228 582.5,560C 578.716,570.693 574.549,581.193 570,591.5C 567.304,590.415 565.137,588.749 563.5,586.5C 567.047,576.527 570.38,566.527 573.5,556.5 Z"/></g>
<g><path style="opacity:1" fill="#000000" d="M 586.5,560.5 C 605.105,565.703 624.105,568.869 643.5,570C 645.959,573.75 648.292,577.583 650.5,581.5C 652.921,577.66 655.088,573.66 657,569.5C 659.333,568.833 661.667,568.167 664,567.5C 665.365,568.593 665.699,569.926 665,571.5C 662.045,577.683 658.712,583.683 655,589.5C 654.674,593.53 654.674,597.53 655,601.5C 651.745,604.11 648.745,603.777 646,600.5C 646.644,590.8 643.644,582.466 637,575.5C 636.044,576.894 634.711,577.561 633,577.5C 630.863,576.923 628.696,576.59 626.5,576.5C 625.444,584.838 624.277,593.172 623,601.5C 620.557,602.285 618.057,602.119 615.5,601C 614.941,600.275 614.608,599.442 614.5,598.5C 615.94,590.55 616.94,582.55 617.5,574.5C 609.379,574.109 601.212,572.442 593,569.5C 591.813,571.044 591.48,572.711 592,574.5C 595.73,575.915 599.563,577.082 603.5,578C 605.165,581.188 604.499,583.688 601.5,585.5C 597.612,584.57 593.779,583.57 590,582.5C 588.681,584.25 588.181,586.25 588.5,588.5C 593.31,589.036 597.977,590.203 602.5,592C 603.476,594.147 603.309,596.314 602,598.5C 601.439,599.022 600.772,599.355 600,599.5C 593.669,597.834 587.336,596.167 581,594.5C 579.393,594.231 578.226,593.397 577.5,592C 580.58,581.511 583.58,571.011 586.5,560.5 Z"/></g>
</svg>
